# xmcd
#
# Track frame offsets:
#	150
#	21486
#	44431
#	67078
#	85385
#	97939
#	121392
#	141751
#	167761
#
# Disc length: 2939 seconds
#
# Revision: 2
# Processed by: cddbd v1.5.2PL0 Copyright (c) Steve Scherf et al.
# Submitted via: EZCDAudioConverter 8.0.2.1
#
DISCID=7c0b7909
DTITLE=Various Artist - st. Trịnh Công Sơn. Đóa Hoa Vô Thường
DYEAR=1997
DGENRE=World Pop
TTITLE0=Tam Ca 3A - Biết đau nguồn cội
TTITLE1=Thanh Lam - Phôi pha
TTITLE2=Hồng Nhung - Rồi như đá ngây ngô
TTITLE3=Khắc Triệu - Trong nỗi đau tình cờ
TTITLE4=Mỹ Linh - Rừng xưa đã khép
TTITLE5=Bảo Phúc - Thuở Bống là người
TTITLE6=Cẩm Vân - Em đi bỏ mặc con đường
TTITLE7=Ta Ca Áo Trắng - Ngẫu nhiên
TTITLE8=Hồng Nhung - Đóa Hoa Vô Thường
EXTD=
EXTT0=
EXTT1=
EXTT2=
EXTT3=
EXTT4=
EXTT5=
EXTT6=
EXTT7=
EXTT8=
PLAYORDER=
